<?xml version="1.0" encoding="UTF-8"?>
<svg xmlns="http://www.w3.org/2000/svg" xmlns:xlink="http://www.w3.org/1999/xlink" width="16pt" height="18pt" viewBox="0 0 16 18" version="1.1">
<g id="surface1">
<path style=" stroke:none;fill-rule:nonzero;fill:#fff;fill-opacity:1;" d="M 11.199219 10.6875 C 10.175781 10.6875 9.683594 11.25 8 11.25 C 6.316406 11.25 5.828125 10.6875 4.800781 10.6875 C 2.148438 10.6875 0 12.804688 0 15.414062 L 0 16.3125 C 0 17.242188 0.769531 18 1.714844 18 L 14.285156 18 C 15.230469 18 16 17.242188 16 16.3125 L 16 15.414062 C 16 12.804688 13.851562 10.6875 11.199219 10.6875 Z M 14.285156 16.3125 L 1.714844 16.3125 L 1.714844 15.414062 C 1.714844 13.738281 3.101562 12.375 4.800781 12.375 C 5.320312 12.375 6.167969 12.9375 8 12.9375 C 9.847656 12.9375 10.675781 12.375 11.199219 12.375 C 12.898438 12.375 14.285156 13.738281 14.285156 15.414062 Z M 8 10.125 C 10.839844 10.125 13.144531 7.859375 13.144531 5.0625 C 13.144531 2.265625 10.839844 0 8 0 C 5.160156 0 2.855469 2.265625 2.855469 5.0625 C 2.855469 7.859375 5.160156 10.125 8 10.125 Z M 8 1.6875 C 9.890625 1.6875 11.429688 3.203125 11.429688 5.0625 C 11.429688 6.921875 9.890625 8.4375 8 8.4375 C 6.109375 8.4375 4.570312 6.921875 4.570312 5.0625 C 4.570312 3.203125 6.109375 1.6875 8 1.6875 Z M 8 1.6875 "/>
</g>
</svg>
